{"title":"The November Man 2014 CAM x264 AC3 TiTAN","uid":10999513,"size":1164686965,"categoryP":"video","categoryS":"movies","magnet":"?xt=urn:btih:d90925d04434b6618266fbef67631feb6ba72cbc&amp;dn=The+November+Man+2014+CAM+x264+AC3+TiTAN&amp;tr=udp%3A%2F%2Ftracker.openbittorrent.com%3A80&amp;tr=udp%3A%2F%2Fopen.demonii.com%3A1337&amp;tr=udp%3A%2F%2Ftracker.coppersurfer.tk%3A6969&amp;tr=udp%3A%2F%2Fexodus.desync.com%3A6969","seeders":2,"leechers":0,"uploader":"xxxlavalxxx","files":-1,"time":1410120079,"description":"[IMG]http://i.imgur.com/mJNc8hg.jpg[/IMG]\n &lt;a href=&quot;\nhttp://www.imdb.com/title/tt2402157/&quot; rel=&quot;nofollow&quot; target=&quot;_NEW&quot;&gt;\nhttp://www.imdb.com/title/tt2402157/&lt;/a&gt;\n\n\nAn ex-CIA operative is brought back in on a very personal mission and finds himself pitted against his former pupil in a deadly game involving high level CIA officials and the Russian president-elect.\n\nDirector: Roger Donaldson\nWriters: Michael Finch (screenplay), Karl Gajdusek (screenplay)\nStars: Pierce Brosnan, Luke Bracey, Olga Kurylenko\nGenres: Action | Crime | Thriller\nCountry: USA\nLanguage: English\n\n\nSource RBG (THX)\n\nDescent first CAM, seems to be complete with no camera movement. is dark in some places, but that is cams for ya.. Enjoy\n\nGeneral\n\nFormat                                   : Matroska\nFormat version                           : Version 2\nFile size                                : 1.08 GiB\nDuration                                 : 1h 41mn\nOverall bit rate mode                    : Variable\nOverall bit rate                         : 1 527 Kbps\nEncoded date                             : UTC 2014-09-07 15:51:34\nWriting application                      : mkvmerge v7.1.0 ('Good Love') 32bit built on Jul 27 2014 12:59:18\nWriting library                          : libebml v1.3.0 + libmatroska v1.4.1\nDURATION                                 : 01:41:41.024000000\nNUMBER_OF_FRAMES                         : 190657\nNUMBER_OF_BYTES                          : 146424576\n\n\nVideo\nID                                       : 1\nFormat                                   : AVC\nFormat/Info                              : Advanced Video Codec\nFormat profile                           : &lt;a class=&quot;__cf_email__&quot; href=&quot;/cdn-cgi/l/email-protection&quot; data-cfemail=&quot;99d1f0fef1d9d5adb7a8&quot;&gt;[email&amp;#160;protected]&lt;/a&gt;&lt;script cf-hash='f9e31' type=&quot;text/javascript&quot;&gt;\n/* &lt;![CDATA[ */!function(){try{var t=&quot;currentScript&quot;in document?document.currentScript:function(){for(var t=document.getElementsByTagName(&quot;script&quot;),e=t.length;e--;)if(t[e].getAttribute(&quot;cf-hash&quot;))return t[e]}();if(t&amp;&amp;t.previousSibling){var e,r,n,i,c=t.previousSibling,a=c.getAttribute(&quot;data-cfemail&quot;);if(a){for(e=&quot;&quot;,r=parseInt(a.substr(0,2),16),n=2;a.length-n;n+=2)i=parseInt(a.substr(n,2),16)^r,e+=String.fromCharCode(i);e=document.createTextNode(e),c.parentNode.replaceChild(e,c)}}}catch(u){}}();/* ]]&gt; */&lt;/script&gt;\nFormat settings, CABAC                   : Yes\nFormat settings, ReFrames                : 3 frames\nCodec ID                                 : V_MPEG4/ISO/AVC\nDuration                                 : 1h 41mn\nBit rate mode                            : Variable\nBit rate                                 : 1 305 Kbps\nMaximum bit rate                         : 40.0 Mbps\nWidth                                    : 704 pixels\nHeight                                   : 272 pixels\nDisplay aspect ratio                     : 2.588\nFrame rate mode                          : Constant\nFrame rate                               : 30.000 fps\nColor space                              : YUV\nChroma subsampling                       : 4:2:0\nBit depth                                : 8 bits\nScan type                                : Progressive\nBits/(Pixel*Frame)                       : 0.227\nStream size                              : 949 MiB (85%)\nDefault                                  : Yes\nForced                                   : No\nColor primaries                          : BT.709\nTransfer characteristics                 : BT.709\nMatrix coefficients                      : BT.709\n\nAudio\nID                                       : 2\nFormat                                   : AC-3\nFormat/Info                              : Audio Coding 3\nMode extension                           : CM (complete main)\nFormat settings, Endianness              : Big\nCodec ID                                 : A_AC3\nDuration                                 : 1h 41mn\nBit rate mode                            : Constant\nBit rate                                 : 192 Kbps\nChannel(s)                               : 2 channels\nChannel positions                        : Front: L R\nSampling rate                            : 48.0 KHz\nBit depth                                : 16 bits\nCompression mode                         : Lossy\nStream size                              : 140 MiB (13%)\nDefault                                  : Yes\nForced                                   : No\n\n &lt;a href=&quot;\nhttp://i.imgur.com/5w1CYJz.png&quot; rel=&quot;nofollow&quot; target=&quot;_NEW&quot;&gt;\nhttp://i.imgur.com/5w1CYJz.png&lt;/a&gt; &lt;a href=&quot;\nhttp://i.imgur.com/WnUFZRG.png&quot; rel=&quot;nofollow&quot; target=&quot;_NEW&quot;&gt;\nhttp://i.imgur.com/WnUFZRG.png&lt;/a&gt; &lt;a href=&quot;\nhttp://i.imgur.com/hlISWZh.png&quot; rel=&quot;nofollow&quot; target=&quot;_NEW&quot;&gt;\nhttp://i.imgur.com/hlISWZh.png&lt;/a&gt; &lt;a href=&quot;\nhttp://i.imgur.com/h8TuqPF.png&quot; rel=&quot;nofollow&quot; target=&quot;_NEW&quot;&gt;\nhttp://i.imgur.com/h8TuqPF.png&lt;/a&gt; &lt;a href=&quot;\nhttp://i.imgur.com/6IrXamz.png&quot; rel=&quot;nofollow&quot; target=&quot;_NEW&quot;&gt;\nhttp://i.imgur.com/6IrXamz.png&lt;/a&gt; &lt;a href=&quot;\nhttp://i.imgur.com/unLSKiC.png&quot; rel=&quot;nofollow&quot; target=&quot;_NEW&quot;&gt;\nhttp://i.imgur.com/unLSKiC.png&lt;/a&gt;","torrent":{"xt":"urn:btih:d90925d04434b6618266fbef67631feb6ba72cbc","amp;dn":"The+November+Man+2014+CAM+x264+AC3+TiTAN","amp;tr":["udp%3A%2F%2Ftracker.openbittorrent.com%3A80","udp%3A%2F%2Fopen.demonii.com%3A1337","udp%3A%2F%2Ftracker.coppersurfer.tk%3A6969","udp%3A%2F%2Fexodus.desync.com%3A6969"],"infoHash":"d90925d04434b6618266fbef67631feb6ba72cbc","infoHashBuffer":{"type":"Buffer","data":[217,9,37,208,68,52,182,97,130,102,251,239,103,99,31,235,107,167,44,188]},"announce":[],"urlList":[]}}